<svg id="Layer_1" data-name="Layer 1" xmlns="http://www.w3.org/2000/svg" viewBox="0 0 400 300" data-imageid="piggy-bank-two-color" imageName="Piggy Bank" class="illustrations_image" style="width: 100%; height: 100%;"><title>#68_piggy bank_twocolour</title><polygon points="133.06 191.46 125.03 204.63 112.73 201.34 114.44 185.55 133.06 191.46" fill="#ffd200"/><path d="M229.5,57.51s.51,7.65-.88,12.71a3.86,3.86,0,0,1-4.76,2.68c-2.54-.74-5.75-2.47-6.53-6.54l-2.15-6.74a6.88,6.88,0,0,1,3.18-7.3C222.75,49.3,229.42,52.83,229.5,57.51Z" fill="#f4a28c"/><polygon points="218 60.38 205.81 82.37 218.41 88.22 222.12 70.33 218 60.38" fill="#f4a28c"/><path d="M214.38,56.22l-.33,9.85a5.22,5.22,0,0,0,6.34-1.95,6.4,6.4,0,0,0,.14-7,86.62,86.62,0,0,0,11.58,1.17c.8,0,2.54.38,2.7-3.1,0,0,1.41-5.58-2.47-7S214.05,48.22,214.38,56.22Z" fill="#24285b"/><polygon points="229.57 62.13 231.76 65.89 229.3 66.46 229.57 62.13" fill="#f4a28c"/><path d="M128.14,223.54s-4.47,1.16-5.16,5-4.61,4.54-5.28.94,4.69-12.26,4.69-12.26L128,218Z" fill="#68e1fd" class="target-color"/><path d="M166.22,191.49s4.69,36-38.08,25.92V224S138.72,232.8,156,229a43.32,43.32,0,0,0,17.53-8.55l17.21-13.73L188.42,195l-15.12-7.14Z" fill="#24285b"/><circle cx="299.29" cy="60.38" r="29.68" fill="#ffd200"/><circle cx="299.29" cy="60.38" r="29.68" opacity="0.08"/><path d="M198.88,126.2S227.82,165,250.3,177.51,315.81,123,315.81,123l-8.25-6.11L260.45,152.7s-27.08-60.85-47.71-60.2S190,115,198.88,126.2Z" fill="#68e1fd" class="target-color"/><path d="M198.88,126.2S227.82,165,250.3,177.51,315.81,123,315.81,123l-8.25-6.11L260.45,152.7s-27.08-60.85-47.71-60.2S190,115,198.88,126.2Z" fill="#fff" opacity="0.46"/><ellipse cx="193.91" cy="254.81" rx="119.5" ry="17.18" fill="#e6e6e6" opacity="0.45"/><path d="M204.39,80.31l14.06,6.42a32,32,0,0,1,17.76,30.87c-.5,7.67-2.2,11.37-4.62,22.31-2.9,13.15-2.65,26.93-13.79,34.5-8.34,5.67-19.38,14.88-21.87,25.17l-42.1-20.16S135.2,77.1,204.39,80.31Z" fill="#68e1fd" class="target-color"/><path d="M207,96.06s23.42,22.32-4.89,49.41S183.4,108,207,96.06Z" opacity="0.08"/><rect x="91.61" y="114.7" width="138.4" height="78.1" rx="37.51" ry="37.51" fill="#ffd200"/><path d="M139.94,192.81h26.39s-27.7-34.64-11.3-73.16c0,0-29.42-2.34-29.15-3.38s1.54,29.93,1.54,29.93Z" opacity="0.08"/><path d="M182.37,81.12s-48,5.75-70.11,19,14.58,84,14.58,84l12-5.26-10.19-57.55s66.25,6.89,76-11.32S196.48,79,182.37,81.12Z" fill="#68e1fd" class="target-color"/><path d="M182.37,81.12s-48,5.75-70.11,19,14.58,84,14.58,84l12-5.26-10.19-57.55s66.25,6.89,76-11.32S196.48,79,182.37,81.12Z" fill="#fff" opacity="0.46"/><path d="M225.74,241.43s4,2.29,7.21,0,6.48,0,4.44,3-11.9,5.52-11.9,5.52L222,245.47Z" fill="#68e1fd" class="target-color"/><path d="M307.56,116.87s-.7-12.64,1.86-13.4,3.75,5.37,3.75,5.37,3-10.78,8.59-9.45S315.81,123,315.81,123Z" fill="#f4a28c"/><path d="M127.47,183.6s-1,14,5.36,13.58a8.56,8.56,0,0,0,2.24-.44,9.49,9.49,0,0,0,5.56-12.56l-1.83-4.58Z" fill="#f4a28c"/><rect x="210.47" y="149.62" width="29.67" height="23.56" rx="11.78" ry="11.78" fill="#ffd200"/><rect x="210.47" y="149.62" width="29.67" height="23.56" rx="11.78" ry="11.78" fill="#fff" opacity="0.35"/><circle cx="205.85" cy="142.75" r="4.62" fill="#24285b"/><circle cx="299.29" cy="54.97" r="29.68" fill="#ffd200"/><circle cx="299.29" cy="54.97" r="19.97" fill="#fff" opacity="0.46"/><path d="M187.69,195.54s28.84,10.48,39.83,44.94l-5.51,5s-13.77-22.65-45.29-40.15Z" fill="#24285b"/><path d="M171.25,131.71s-7.63-11.63-2.6-18.05,18.39,9,18.39,9Z" fill="#ffd200"/><ellipse cx="231.33" cy="161.4" rx="3.19" ry="5.21" opacity="0.08"/><ellipse cx="220.95" cy="161.4" rx="3.19" ry="5.21" opacity="0.08"/><polygon points="180.59 191.91 188.63 205.08 200.93 201.78 199.21 185.99 180.59 191.91" fill="#ffd200"/><path d="M93.2,142.75s-14.61-4.45-26.76,2.5c0,0,17.37-2.42,25.17,8.51Z" fill="#ffd200"/><path d="M300.56,40.65c.7,0,.91.24.91.93v1.48a6.78,6.78,0,0,1,5.56,4.2c.36.73.21,1.12-.6,1.48l-1.49.67c-.69.33-1,.18-1.42-.55a3.77,3.77,0,0,0-3.86-2.32c-2.57,0-3.75.75-3.75,2.48A2.29,2.29,0,0,0,298,51a17.19,17.19,0,0,0,2.18.33,13.93,13.93,0,0,1,4,.79,5.51,5.51,0,0,1,1.78,1,5.84,5.84,0,0,1,1.6,4.24c0,3.29-2.2,5.53-6.1,6.1V65c0,.7-.21.94-.91.94H298.9c-.69,0-.94-.24-.94-.94V63.49a6.87,6.87,0,0,1-6-4.65,1,1,0,0,1,.7-1.39l1.48-.55c.75-.27,1.08-.09,1.42.67a3.94,3.94,0,0,0,4.08,2.54c2.78,0,4.17-.88,4.17-2.66a1.87,1.87,0,0,0-1.3-1.88,10.44,10.44,0,0,0-3-.57,13.16,13.16,0,0,1-4-.88,5.57,5.57,0,0,1-1.76-1A5.51,5.51,0,0,1,292,49c0-3.27,2.06-5.44,5.92-6V41.58c0-.69.25-.93.94-.93Z" fill="#fff"/></svg>